<svg xmlns="http://www.w3.org/2000/svg" viewBox="0 0 1040.95 798.52"><defs><style>.cls-1{fill:#ff3ba7;}.cls-2,.cls-5{fill:#639;}.cls-3{fill:#fff;}.cls-4{fill:#009acc;}.cls-5{stroke:#fff;stroke-miterlimit:10;stroke-width:4px;}</style></defs><title>logo</title><g id="Layer_2" data-name="Layer 2"><g id="Layer_1-2" data-name="Layer 1"><path class="cls-1" d="M138.48,161.09,3.56,237.89S0,240,0,243.11s3.74,5.33,3.74,5.33l134.74,76.7H488.2v-164Z"/><rect class="cls-2" x="488.2" y="15.23" width="64.55" height="770.06"/><path class="cls-3" d="M208.66,203.07c7.48,0,23.68,3.4,23.68,15.36v9.43h-8.19v-6c0-6.81-9.42-9.33-15.14-9.33-13.29,0-23.07,12.18-23.07,29.73,0,18.32,10,31.38,23.6,31.38,4.4,0,15.49-2,15.49-9.11v-6h8.19v9.44c0,11.4-15.58,15.24-24.21,15.24-18.66,0-32.14-17.88-32.14-40.48S190.7,203.07,208.66,203.07Z"/><path class="cls-3" d="M265.62,225c13.3,0,24,12.18,24,29s-10.74,29.18-24,29.18-24-12.28-24-29.18S252.33,225,265.62,225Zm0,48.93c8.37,0,15.32-8.34,15.32-20s-6.95-19.75-15.32-19.75S250.3,242.45,250.3,254,257.17,273.94,265.62,273.94Z"/><path class="cls-3" d="M297.05,273.61h7V234.55h-7.4v-8.23H304v-2.74c0-17.77,10.74-20,16-20a23.07,23.07,0,0,1,4.05.33v8.78a12.53,12.53,0,0,0-3.17-.33c-2.82,0-8.36,1-8.36,11v3h21.74v-2.74c0-17.77,10.66-20,15.94-20a23.56,23.56,0,0,1,4.14.33v8.78a13,13,0,0,0-3.26-.33c-2.73,0-8.28,1-8.28,11v3h10.75v8.23H342.83v39.06H351v8.23H327.25v-8.23h7V234.55H312.55v39.06h8.19v8.23H297.05Z"/><path class="cls-3" d="M381.66,225c12.68,0,19.28,11.63,19.28,26,0,1.43-.26,4.06-.26,4.06H368.1c.53,12.29,7.49,18.87,15.41,18.87,7.75,0,13.3-6.25,13.3-6.25l3.52,7.78s-6.69,7.68-17.35,7.68c-14,0-23.59-12.61-23.59-29.07C359.39,236.42,369,225,381.66,225Zm10.48,23.26c-.27-9.77-5-14.81-10.65-14.81-6.52,0-11.8,5.48-13,14.81Z"/><path class="cls-3" d="M430.52,225c12.68,0,19.29,11.63,19.29,26,0,1.43-.27,4.06-.27,4.06H417c.52,12.29,7.48,18.87,15.4,18.87,7.75,0,13.3-6.25,13.3-6.25l3.52,7.78s-6.69,7.68-17.34,7.68c-14,0-23.6-12.61-23.6-29.07C408.25,236.42,417.85,225,430.52,225ZM441,248.27c-.26-9.77-5-14.81-10.65-14.81-6.52,0-11.8,5.48-13,14.81Z"/><path class="cls-4" d="M1037.39,189.31l-134.92-76.8H552.75V276.56H902.47l134.73-76.7s3.75-2.12,3.75-5.33S1037.39,189.31,1037.39,189.31Z"/><path class="cls-3" d="M631.73,159.92a59.87,59.87,0,0,1,14-1.54c7.66,0,12.59,1.65,16.29,5.38,3.08,2.85,4.93,7.24,4.93,13.05a17.47,17.47,0,0,1-10,16.24v.22c5.63,1.76,12.24,7.57,12.24,18.54a22.53,22.53,0,0,1-5,14.81c-4.14,4.72-10.83,6.91-20.52,6.91a73.25,73.25,0,0,1-11.88-.87Zm7.66,30.28h7c8.1,0,12.86-5.27,12.86-12.4,0-8.67-5.28-12.07-13-12.07a26.5,26.5,0,0,0-6.78.66Zm0,35.43a32.93,32.93,0,0,0,6.43.44c7.92,0,15.23-3.62,15.23-14.37,0-10.09-7-14.26-15.32-14.26h-6.34Z"/><path class="cls-3" d="M679.18,155h7.75v77.9h-7.75Z"/><path class="cls-3" d="M738.52,205.89c0,19.63-10.91,28.19-21.21,28.19-11.54,0-20.43-10.53-20.43-27.32,0-17.77,9.33-28.19,21.13-28.19C730.25,178.57,738.52,189.65,738.52,205.89Zm-33.8.54c0,11.63,5.37,20.41,12.94,20.41,7.39,0,12.94-8.67,12.94-20.62,0-9-3.61-20.41-12.77-20.41S704.72,196.34,704.72,206.43Z"/><path class="cls-3" d="M778.67,230.9A23.83,23.83,0,0,1,766.43,234c-12.85,0-21.21-10.86-21.21-27.1s9-28.19,22.89-28.19a21.62,21.62,0,0,1,10.74,2.74l-1.76,7.46a15.18,15.18,0,0,0-9-2.52c-9.78,0-15.06,9-15.06,20.07,0,12.29,6.34,19.86,14.79,19.86a18.51,18.51,0,0,0,9.51-2.63Z"/><path class="cls-3" d="M795.4,204.13h.18c1-1.86,2.55-4.17,3.78-6l12.5-18.32h9.34l-16.47,21.83,18.76,31.27h-9.42l-14.71-25.46-4,5.49v20h-7.66V155h7.66Z"/><ellipse class="cls-5" cx="520.47" cy="15.23" rx="32.27" ry="13.23"/><ellipse class="cls-2" cx="520.47" cy="785.29" rx="32.27" ry="13.23"/></g></g></svg>